SplineFontDB: 3.0
FontName: Capitan-Regular
FullName: Capitan Regular
FamilyName: Capitan
Weight: Regular
Copyright: Copyright \\(c\\) 2015, David Rizo Valero
Version: 001.000
ItalicAngle: 0
UnderlinePosition: -307.2
UnderlineWidth: 102.4
Ascent: 1638
Descent: 410
InvalidEm: 0
sfntRevision: 0x00010000
LayerCount: 2
Layer: 0 0 "Back" 1
Layer: 1 0 "Fore" 0
XUID: [1021 426 -2124310150 7150829]
FSType: 8
OS2Version: 3
OS2_WeightWidthSlopeOnly: 0
OS2_UseTypoMetrics: 1
CreationTime: 1506426459
ModificationTime: 1507308299
PfmFamily: 17
TTFWeight: 400
TTFWidth: 5
LineGap: 0
VLineGap: 0
Panose: 2 0 5 3 0 0 0 0 0 0
OS2TypoAscent: 1638
OS2TypoAOffset: 0
OS2TypoDescent: -410
OS2TypoDOffset: 0
OS2TypoLinegap: 184
OS2WinAscent: 1479
OS2WinAOffset: 0
OS2WinDescent: 2189
OS2WinDOffset: 0
HheadAscent: 1479
HheadAOffset: 0
HheadDescent: -2189
HheadDOffset: 0
OS2SubXSize: 1331
OS2SubYSize: 1229
OS2SubXOff: 0
OS2SubYOff: 154
OS2SupXSize: 1331
OS2SupYSize: 1229
OS2SupXOff: 0
OS2SupYOff: 717
OS2StrikeYSize: 102
OS2StrikeYPos: 258
OS2CapHeight: 232
OS2XHeight: 210
OS2Vendor: 'PfEd'
OS2CodePages: 00000001.00000000
OS2UnicodeRanges: 00000001.00000000.00000000.00000000
Lookup: 1 0 0 "" { } []
MarkAttachClasses: 1
DEI: 91125
LangName: 1033 "Copyright (c) 2015, David Rizo Valero" "" "" "1.000;PfEd;Capitan-Regular" "Capitan-Regular" "Version 1.000;PS 001.000;hotconv 1.0.88;makeotf.lib2.5.64775" "" "" "" "Beatriz Pascual Hern+AOEA-ndez" "" "" "http://beatrizpascual.net/"
Encoding: Custom
UnicodeInterp: none
NameList: AGL For New Fonts
DisplaySize: -128
AntiAlias: 1
FitToEm: 1
WinInfo: 110 10 4
BeginPrivate: 3
BlueValues 17 [-1903 0 256 512]
BlueScale 5 0.037
BlueFuzz 1 0
EndPrivate
BeginChars: 65540 44

StartChar: .notdef
Encoding: 65536 -1 0
Width: 745
Flags: HW
LayerCount: 2
Back
Fore
SplineSet
610 1364 m 1
 610 0 l 1
 68 0 l 1
 68 1364 l 1
 610 1364 l 1
543 1296 m 1
 135 1296 l 1
 135 68 l 1
 543 68 l 1
 543 1296 l 1
EndSplineSet
EndChar

StartChar: plus
Encoding: 43 43 1
Width: 616
Flags: HW
LayerCount: 2
Back
Fore
SplineSet
469 -18 m 1
 496 -6 520 4 543 14 c 0
 563 24 580 31 592 35 c 0
 604 39 610 39 610 37 c 0
 610 31 606 15 600 -14 c 0
 592 -41 586 -55 584 -55 c 0
 578 -57 569 -62 559 -68 c 0
 549 -72 540 -76 532 -82 c 0
 522 -86 514 -90 508 -92 c 0
 504 -94 497 -96 489 -100 c 0
 479 -104 473 -109 469 -111 c 0
 467 -195 467 -270 467 -336 c 0
 467 -338 453 -350 422 -373 c 0
 391 -396 375 -406 373 -406 c 0
 369 -406 367 -322 367 -156 c 1
 332 -174 289 -195 240 -215 c 1
 240 -256 l 1
 240 -289 l 2
 240 -299 240 -307 240 -313 c 0
 238 -319 238 -326 238 -330 c 2
 238 -336 l 2
 238 -338 224 -350 195 -373 c 0
 164 -396 147 -406 145 -406 c 0
 143 -406 143 -356 141 -258 c 1
 98 -276 64 -293 39 -303 c 0
 14 -313 2 -315 2 -313 c 0
 2 -309 4 -293 10 -266 c 0
 16 -237 23 -223 25 -223 c 0
 27 -223 65 -205 139 -170 c 1
 139 39 l 1
 92 19 58 4 35 -6 c 0
 12 -14 2 -16 2 -14 c 0
 2 -10 4 6 10 35 c 0
 16 62 23 76 25 76 c 0
 29 76 67 94 139 129 c 1
 139 362 l 2
 139 364 148 373 164 387 c 0
 178 401 195 418 213 432 c 0
 229 446 240 453 242 453 c 0
 244 453 244 360 242 178 c 1
 367 236 l 1
 367 362 l 2
 367 364 383 381 414 410 c 0
 445 439 463 453 469 453 c 0
 471 453 471 396 471 283 c 1
 516 303 550 318 575 328 c 0
 598 336 610 338 610 336 c 0
 610 334 608 323 606 309 c 0
 602 295 598 278 594 264 c 0
 588 250 586 242 584 242 c 2
 510 207 l 1
 471 190 l 1
 469 145 469 76 469 -18 c 1
242 -123 m 1
 256 -117 276 -106 305 -94 c 0
 332 -80 353 -69 367 -63 c 1
 367 141 l 1
 242 86 l 1
 242 -23 l 1
 242 -123 l 1
EndSplineSet
EndChar

StartChar: hyphen
Encoding: 45 45 2
Width: 391
Flags: HW
LayerCount: 2
Back
Fore
SplineSet
313 301 m 0
 327 301 338 299 346 295 c 0
 354 289 363 278 369 262 c 0
 375 246 381 221 385 186 c 0
 387 151 389 104 389 49 c 0
 389 0 367 -54 324 -111 c 0
 279 -168 227 -215 172 -252 c 0
 115 -287 68 -305 31 -305 c 0
 8 -305 -2 12 -2 649 c 0
 -2 844 55 942 172 942 c 2
 176 942 l 1
 193 940 l 2
 193 938 190 936 186 934 c 0
 131 891 104 819 102 721 c 0
 102 711 102 650 100 541 c 0
 98 432 98 346 98 285 c 0
 96 222 98 179 100 154 c 0
 102 154 109 160 119 170 c 0
 129 180 144 193 160 207 c 0
 176 221 195 236 213 250 c 0
 231 264 250 277 268 287 c 0
 286 297 303 301 313 301 c 0
156 -211 m 0
 166 -211 182 -205 205 -193 c 0
 228 -181 248 -164 266 -141 c 0
 284 -118 295 -98 295 -80 c 0
 295 33 291 108 283 143 c 0
 275 178 258 197 231 197 c 0
 215 197 191 183 156 154 c 0
 121 123 104 102 106 88 c 0
 106 78 107 63 109 45 c 0
 111 -55 115 -123 121 -158 c 0
 127 -193 138 -211 156 -211 c 0
EndSplineSet
EndChar

StartChar: period
Encoding: 46 46 3
Width: 135
Flags: HW
LayerCount: 2
Back
Fore
SplineSet
70 102 m 0
 52 102 34 109 20 121 c 0
 6 133 0 150 0 168 c 0
 0 186 9 203 23 215 c 0
 37 227 52 233 70 233 c 0
 88 233 103 227 117 215 c 0
 129 203 135 186 135 168 c 0
 135 150 129 133 117 121 c 0
 103 109 88 102 70 102 c 0
EndSplineSet
EndChar

StartChar: equal
Encoding: 61 61 4
Width: 344
Flags: HW
LayerCount: 2
Back
Fore
SplineSet
328 377 m 0
 338 377 344 370 344 360 c 2
 344 -668 l 2
 344 -684 335 -692 319 -692 c 2
 293 -692 l 2
 277 -692 268 -684 268 -668 c 2
 268 -362 l 2
 268 -348 256 -340 233 -340 c 0
 194 -340 127 -360 31 -401 c 1
 25 -403 l 1
 20 -406 l 1
 16 -406 l 2
 6 -406 0 -399 0 -387 c 2
 0 668 l 2
 0 684 9 692 25 692 c 2
 51 692 l 2
 67 692 76 684 76 668 c 2
 76 326 l 2
 76 320 82 315 96 315 c 0
 112 315 137 320 168 328 c 0
 199 336 223 344 246 352 c 2
 281 362 l 1
 283 365 l 1
 289 365 l 1
 319 375 l 2
 321 377 324 377 328 377 c 0
88 -188 m 2
 90 -188 92 -188 94 -190 c 0
 96 -190 98 -190 100 -190 c 0
 135 -190 176 -179 225 -152 c 1
 195 -121 l 2
 193 -119 190 -115 190 -109 c 0
 190 -103 193 -98 195 -96 c 2
 217 -74 l 2
 219 -72 223 -70 227 -70 c 0
 229 -70 234 -72 240 -74 c 2
 268 -102 l 1
 268 115 l 1
 240 86 l 2
 238 84 233 82 227 82 c 0
 221 82 219 84 217 86 c 2
 195 109 l 2
 193 111 190 113 190 119 c 0
 190 125 193 129 195 131 c 2
 260 197 l 1
 250 197 l 2
 215 197 176 185 129 160 c 1
 156 131 l 2
 158 125 160 121 160 119 c 0
 160 115 158 111 156 109 c 2
 133 86 l 2
 131 84 129 84 125 84 c 2
 111 86 l 1
 101 96 92 103 86 109 c 0
 80 115 76 117 76 115 c 2
 76 -106 l 1
 111 -74 l 2
 113 -72 117 -70 121 -70 c 0
 123 -70 127 -72 133 -74 c 2
 156 -96 l 2
 158 -102 160 -107 160 -109 c 0
 160 -111 158 -115 156 -121 c 2
 88 -188 l 2
EndSplineSet
EndChar

StartChar: A
Encoding: 65 65 5
Width: 352
Flags: HW
LayerCount: 2
Back
Fore
SplineSet
340 1024 m 1
 340 1018 340 692 342 45 c 0
 344 -602 344 -926 344 -928 c 0
 344 -930 326 -946 291 -977 c 0
 256 -1008 238 -1022 236 -1022 c 2
 231 -510 l 2
 229 -168 227 151 227 444 c 0
 225 737 225 909 227 956 c 0
 229 956 234 959 244 965 c 0
 246 967 256 973 276 985 c 0
 296 997 317 1010 340 1024 c 1
113 1024 m 1
 113 1018 115 692 117 45 c 0
 119 -602 119 -926 119 -928 c 0
 119 -930 103 -946 68 -977 c 0
 33 -1008 12 -1022 10 -1022 c 0
 8 -1022 8 -852 6 -510 c 0
 4 -168 2 151 2 444 c 0
 0 737 0 909 2 956 c 0
 4 956 8 959 16 965 c 0
 18 967 31 973 51 985 c 0
 71 997 93 1010 113 1024 c 1
EndSplineSet
EndChar

StartChar: B
Encoding: 66 66 6
Width: 120
Flags: HW
LayerCount: 2
Back
Fore
SplineSet
113 1024 m 1
 113 1020 115 696 117 49 c 0
 119 -596 119 -918 119 -920 c 0
 119 -922 101 -938 66 -971 c 0
 31 -1004 12 -1020 10 -1020 c 0
 8 -1020 6 -690 4 -33 c 0
 0 626 -2 956 0 958 c 0
 2 958 41 981 113 1024 c 1
EndSplineSet
EndChar

StartChar: C
Encoding: 67 67 7
Width: 53
Flags: HW
LayerCount: 2
Back
Fore
SplineSet
0 463 m 0
 0 465 9 473 25 487 c 0
 39 501 47 510 49 510 c 0
 51 510 51 358 51 53 c 0
 51 51 49 49 45 43 c 0
 39 37 35 33 29 27 c 2
 12 10 l 2
 6 4 4 2 2 2 c 0
 0 2 0 156 0 463 c 0
EndSplineSet
EndChar

StartChar: D
Encoding: 68 68 8
Width: 55
Flags: HW
LayerCount: 2
Back
Fore
SplineSet
0 463 m 0
 0 465 9 473 25 489 c 0
 41 503 49 512 51 512 c 0
 53 512 53 444 53 307 c 0
 53 305 45 297 29 281 c 0
 13 265 4 256 2 256 c 0
 0 256 0 326 0 463 c 0
EndSplineSet
EndChar

StartChar: E
Encoding: 69 69 9
Width: 69
Flags: HW
LayerCount: 2
Back
Fore
SplineSet
2 195 m 2
 2 197 12 207 35 227 c 0
 55 245 66 256 68 256 c 0
 70 256 70 192 68 63 c 0
 68 61 57 49 37 29 c 0
 17 9 4 -2 2 -2 c 2
 2 195 l 2
EndSplineSet
EndChar

StartChar: F
Encoding: 70 70 10
Width: 282
Flags: HW
LayerCount: 2
Back
Fore
SplineSet
281 344 m 0
 281 342 267 315 240 264 c 1
 76 174 l 1
 76 82 l 2
 76 80 64 66 41 39 c 0
 18 12 4 0 2 0 c 0
 0 0 0 84 0 252 c 0
 0 254 12 266 35 291 c 0
 58 316 70 328 72 328 c 0
 74 328 74 301 74 246 c 1
 107 262 150 282 203 309 c 0
 254 334 281 346 281 344 c 0
EndSplineSet
EndChar

StartChar: G
Encoding: 71 71 11
Width: 311
Flags: HW
LayerCount: 2
Back
Fore
SplineSet
307 324 m 0
 309 324 311 242 311 80 c 0
 311 78 299 64 274 39 c 0
 247 12 233 0 231 0 c 0
 229 0 229 59 229 178 c 1
 190 196 131 227 47 268 c 1
 2 344 l 2
 2 346 31 336 86 313 c 0
 141 288 190 268 229 250 c 0
 231 252 238 260 252 272 c 0
 264 284 277 297 289 307 c 0
 299 317 305 324 307 324 c 0
EndSplineSet
EndChar

StartChar: H
Encoding: 72 72 12
Width: 309
Flags: HW
LayerCount: 2
Back
Fore
SplineSet
305 326 m 0
 307 326 309 244 309 82 c 0
 309 80 297 66 272 41 c 0
 245 14 231 2 229 2 c 2
 225 84 l 1
 198 98 164 116 119 141 c 1
 74 217 l 2
 74 219 92 211 129 197 c 0
 166 181 198 166 225 154 c 1
 225 180 l 1
 188 198 129 229 45 270 c 1
 0 346 l 2
 0 348 29 338 84 315 c 0
 139 290 188 270 227 252 c 0
 229 254 236 262 250 274 c 0
 262 286 275 299 287 309 c 0
 297 319 303 326 305 326 c 0
EndSplineSet
EndChar

StartChar: bracketleft
Encoding: 91 91 14
Width: 1384
Flags: HW
LayerCount: 2
Back
Fore
SplineSet
18 0 m 0
 16 0 12 4 6 12 c 0
 0 18 -2 25 -2 29 c 0
 -2 31 2 43 8 66 c 0
 14 89 27 119 43 158 c 0
 59 197 79 238 104 281 c 0
 129 324 162 367 203 412 c 0
 244 457 289 498 340 535 c 0
 389 570 450 600 522 623 c 0
 594 646 672 657 754 657 c 0
 828 657 895 649 958 633 c 0
 1021 615 1073 592 1116 565 c 0
 1159 538 1196 508 1231 473 c 0
 1264 438 1291 404 1309 371 c 0
 1327 338 1342 307 1354 276 c 0
 1366 245 1374 223 1378 207 c 0
 1382 191 1384 180 1384 176 c 0
 1384 168 1368 137 1337 84 c 0
 1304 29 1286 2 1282 2 c 0
 1280 2 1278 11 1276 25 c 0
 1272 48 1268 68 1266 84 c 0
 1262 100 1253 127 1241 164 c 0
 1227 201 1212 233 1196 260 c 0
 1180 287 1155 317 1124 352 c 0
 1091 385 1057 411 1018 434 c 0
 979 457 927 475 868 489 c 0
 809 503 744 512 672 512 c 0
 613 512 555 501 500 483 c 0
 445 465 395 441 354 410 c 0
 311 379 273 346 236 311 c 0
 199 274 168 238 141 203 c 0
 114 166 94 133 76 102 c 0
 58 71 45 47 35 29 c 0
 25 11 20 0 18 0 c 0
758 279 m 0
 758 295 754 310 748 324 c 0
 742 336 731 346 719 354 c 0
 705 360 690 365 674 365 c 0
 651 365 630 356 614 340 c 0
 596 322 588 302 588 279 c 0
 588 254 596 233 614 219 c 0
 630 203 651 195 674 195 c 0
 699 195 719 203 735 219 c 0
 749 233 758 254 758 279 c 0
EndSplineSet
EndChar

StartChar: bracketright
Encoding: 93 93 15
Width: 1341
Flags: HW
LayerCount: 2
Back
Fore
SplineSet
1313 14 m 2
 1317 14 1321 10 1327 2 c 0
 1333 -6 1335 -12 1335 -14 c 0
 1335 -24 1335 -39 1333 -57 c 0
 1331 -73 1327 -107 1319 -156 c 0
 1311 -203 1298 -250 1284 -295 c 0
 1270 -338 1245 -387 1212 -440 c 0
 1179 -493 1141 -541 1098 -580 c 0
 1053 -619 994 -649 922 -676 c 0
 850 -703 768 -715 680 -715 c 0
 600 -715 527 -706 459 -688 c 0
 391 -670 334 -645 289 -616 c 0
 242 -585 201 -553 164 -516 c 0
 129 -477 100 -441 80 -406 c 0
 62 -371 45 -336 31 -303 c 0
 17 -270 8 -245 4 -227 c 0
 0 -209 -2 -199 -2 -193 c 0
 -2 -189 2 -176 12 -158 c 0
 22 -138 35 -117 49 -94 c 0
 63 -71 76 -53 88 -35 c 0
 100 -17 107 -6 109 -6 c 0
 111 -6 113 -17 115 -37 c 0
 117 -57 123 -84 131 -117 c 0
 141 -150 154 -186 170 -225 c 0
 186 -264 211 -303 244 -342 c 0
 275 -381 313 -418 358 -451 c 0
 401 -482 460 -508 532 -528 c 0
 604 -548 682 -559 770 -559 c 0
 833 -559 893 -548 948 -528 c 0
 1001 -505 1046 -479 1083 -446 c 0
 1118 -411 1151 -375 1180 -334 c 0
 1207 -293 1229 -252 1245 -211 c 0
 1261 -170 1276 -133 1286 -100 c 0
 1296 -65 1303 -38 1307 -18 c 2
 1313 14 l 2
702 -313 m 0
 677 -313 657 -305 639 -287 c 0
 621 -269 610 -246 610 -221 c 0
 610 -196 621 -176 639 -158 c 0
 657 -140 677 -129 702 -129 c 0
 729 -129 750 -138 768 -156 c 0
 786 -174 795 -194 795 -221 c 0
 795 -248 786 -269 768 -287 c 0
 750 -305 729 -313 702 -313 c 0
EndSplineSet
EndChar

StartChar: a
Encoding: 97 97 16
Width: 757
Flags: HW
LayerCount: 2
Back
Fore
SplineSet
754 -918 m 1
 742 -928 729 -938 719 -948 c 0
 709 -958 698 -965 692 -971 c 0
 686 -977 680 -981 674 -987 c 0
 668 -991 664 -995 662 -997 c 0
 660 -999 655 -1002 651 -1004 c 0
 649 -1006 649 -1006 647 -1006 c 2
 647 -993 l 1
 647 -954 l 1
 647 -897 l 2
 647 -874 647 -850 647 -819 c 0
 645 -788 645 -758 645 -727 c 0
 645 -694 645 -657 645 -618 c 0
 643 -577 643 -539 643 -500 c 1
 631 -500 543 -495 377 -487 c 0
 211 -477 125 -473 117 -473 c 1
 117 -918 l 1
 103 -932 88 -944 76 -956 c 0
 62 -966 51 -977 43 -985 c 0
 33 -991 27 -995 25 -997 c 0
 23 -999 18 -1002 16 -1004 c 0
 14 -1006 12 -1006 10 -1006 c 1
 10 -895 8 -545 6 47 c 0
 4 639 0 934 -2 934 c 2
 117 1020 l 1
 117 514 l 1
 135 514 219 510 373 504 c 0
 525 498 612 494 639 494 c 1
 639 575 l 1
 639 653 l 2
 639 676 639 700 639 723 c 0
 637 746 637 766 637 784 c 0
 637 802 637 820 637 836 c 0
 635 850 635 865 635 877 c 2
 635 907 l 2
 635 915 635 922 635 928 c 2
 633 934 l 1
 754 1020 l 1
 754 -918 l 1
117 -123 m 1
 135 -123 223 -127 379 -133 c 0
 533 -139 620 -143 643 -143 c 1
 643 -22 643 70 641 133 c 1
 618 133 527 137 367 145 c 0
 205 153 123 158 117 158 c 2
 117 -123 l 1
639 360 m 1
 612 360 520 365 362 375 c 0
 204 383 123 387 117 387 c 2
 117 285 l 1
 150 285 238 282 379 276 c 0
 520 270 608 266 641 264 c 1
 641 274 641 290 641 313 c 0
 639 336 639 350 639 360 c 1
117 -346 m 1
 144 -348 230 -352 375 -358 c 0
 520 -364 610 -367 643 -367 c 1
 643 -276 l 1
 627 -276 537 -272 373 -264 c 0
 209 -256 123 -252 117 -252 c 2
 117 -346 l 1
EndSplineSet
EndChar

StartChar: b
Encoding: 98 98 17
Width: 757
Flags: HW
LayerCount: 2
Back
Fore
SplineSet
741 23 m 0
 741 -94 707 -190 637 -270 c 0
 567 -348 481 -391 379 -397 c 1
 385 -735 389 -936 389 -999 c 0
 389 -1071 383 -1133 369 -1186 c 0
 355 -1239 336 -1280 313 -1307 c 0
 290 -1334 267 -1354 244 -1368 c 0
 219 -1382 195 -1389 172 -1389 c 0
 111 -1389 80 -1343 80 -1251 c 0
 80 -1216 100 -1177 141 -1130 c 0
 172 -1095 188 -1089 188 -1114 c 0
 188 -1120 186 -1131 184 -1145 c 0
 180 -1159 176 -1172 174 -1184 c 0
 172 -1196 170 -1209 168 -1221 c 0
 166 -1233 168 -1243 174 -1251 c 0
 180 -1257 189 -1262 201 -1262 c 0
 262 -1262 297 -1180 305 -1018 c 0
 313 -854 306 -645 283 -393 c 1
 195 -377 123 -334 72 -264 c 0
 21 -192 -6 -101 -6 12 c 0
 -6 35 -2 59 4 88 c 0
 10 119 21 147 33 178 c 0
 43 211 58 241 72 276 c 0
 86 309 103 340 117 371 c 0
 131 400 148 428 162 457 c 0
 176 484 191 508 201 528 c 0
 211 546 221 563 229 575 c 0
 235 587 240 594 240 596 c 0
 240 637 240 712 242 823 c 0
 244 934 244 1036 246 1130 c 0
 248 1224 248 1272 248 1274 c 0
 248 1305 273 1346 324 1399 c 0
 373 1450 411 1477 438 1477 c 0
 481 1477 512 1456 535 1415 c 0
 558 1374 567 1325 565 1266 c 0
 565 1241 561 1211 553 1176 c 0
 545 1141 534 1104 522 1069 c 0
 510 1032 495 995 481 958 c 0
 467 919 450 885 436 852 c 0
 420 819 405 791 393 764 c 0
 381 737 371 716 365 702 c 2
 352 678 l 2
 352 680 352 664 354 629 c 0
 354 594 356 543 358 471 c 0
 360 399 360 326 362 246 c 1
 397 260 432 268 471 268 c 0
 522 268 567 260 606 242 c 0
 645 224 674 199 692 172 c 0
 710 145 723 119 731 94 c 0
 737 67 741 46 741 23 c 0
383 1401 m 0
 377 1401 364 1387 344 1360 c 0
 324 1331 313 1310 313 1296 c 0
 313 1255 318 1163 328 1020 c 0
 336 877 344 805 350 807 c 0
 356 807 368 832 391 883 c 0
 414 934 434 995 457 1069 c 0
 477 1141 485 1200 483 1247 c 0
 481 1278 473 1306 461 1331 c 0
 447 1356 434 1374 420 1384 c 0
 406 1394 393 1401 383 1401 c 0
90 43 m 0
 90 -43 108 -113 143 -164 c 0
 178 -215 221 -251 274 -274 c 1
 268 -165 260 -51 254 70 c 1
 227 47 201 8 172 -43 c 1
 172 -25 178 4 190 45 c 0
 202 86 223 125 250 160 c 1
 248 203 246 273 246 365 c 2
 246 530 l 1
 203 450 168 367 137 279 c 0
 106 191 90 111 90 43 c 0
389 -299 m 2
 469 -299 530 -279 573 -240 c 0
 616 -199 637 -144 637 -72 c 0
 637 -21 614 24 567 63 c 0
 520 104 463 125 395 125 c 0
 381 125 371 125 365 123 c 0
 367 96 369 -43 375 -299 c 1
 389 -299 l 2
EndSplineSet
EndChar

StartChar: c
Encoding: 99 99 18
Width: 839
Flags: HW
LayerCount: 2
Back
Fore
SplineSet
299 -96 m 2
 299 -100 299 -109 297 -119 c 0
 295 -129 289 -142 283 -160 c 0
 275 -176 264 -193 254 -209 c 0
 244 -223 227 -238 209 -248 c 0
 191 -258 168 -264 143 -264 c 0
 112 -264 88 -258 68 -246 c 0
 48 -234 33 -216 25 -193 c 0
 15 -170 8 -148 6 -125 c 0
 2 -102 0 -76 0 -45 c 0
 0 59 47 154 139 238 c 0
 231 322 336 362 457 362 c 0
 520 362 578 351 629 328 c 0
 678 303 716 270 745 231 c 0
 772 192 795 149 809 102 c 0
 823 55 829 8 829 -41 c 0
 829 -96 820 -166 797 -250 c 0
 774 -334 748 -420 713 -508 c 0
 678 -596 639 -688 596 -784 c 0
 553 -878 512 -967 469 -1051 c 0
 426 -1135 385 -1208 350 -1276 c 0
 313 -1342 283 -1395 258 -1434 c 0
 231 -1473 217 -1491 213 -1491 c 0
 211 -1491 211 -1491 211 -1489 c 0
 209 -1487 209 -1485 211 -1483 c 2
 213 -1473 l 2
 213 -1469 213 -1464 213 -1460 c 2
 213 -1450 l 2
 213 -1444 240 -1388 291 -1286 c 0
 342 -1182 398 -1067 459 -940 c 0
 518 -811 576 -673 627 -526 c 0
 678 -379 702 -262 702 -178 c 0
 702 -63 668 28 596 98 c 0
 524 168 442 203 354 203 c 0
 223 203 137 160 94 76 c 0
 65 19 65 -35 94 -82 c 0
 112 -111 135 -125 166 -125 c 0
 180 -125 195 -125 209 -125 c 0
 223 -123 234 -123 242 -121 c 0
 250 -119 258 -117 266 -115 c 0
 272 -113 279 -111 283 -109 c 0
 285 -107 289 -104 291 -102 c 0
 293 -100 295 -98 297 -98 c 0
 299 -96 299 -96 299 -94 c 2
 299 -96 l 2
EndSplineSet
EndChar

StartChar: d
Encoding: 100 100 19
Width: 999
Flags: HW
LayerCount: 2
Back
Fore
SplineSet
459 369 m 2
 475 369 483 357 483 330 c 2
 483 -1933 l 2
 483 -1949 481 -1960 477 -1964 c 0
 473 -1968 467 -1970 459 -1970 c 2
 442 -1970 l 2
 436 -1970 432 -1970 430 -1970 c 0
 428 -1968 424 -1966 422 -1960 c 0
 420 -1954 418 -1945 418 -1933 c 2
 418 -324 l 1
 408 -293 389 -276 362 -276 c 2
 115 -276 l 2
 109 -276 102 -277 98 -279 c 0
 94 -279 88 -283 82 -291 c 0
 76 -297 70 -310 68 -324 c 2
 68 -360 l 2
 68 -374 59 -381 43 -381 c 2
 25 -381 l 2
 9 -381 0 -374 0 -360 c 2
 0 348 l 2
 0 362 9 369 25 369 c 2
 43 369 l 2
 59 369 68 362 68 348 c 2
 68 328 l 2
 74 283 90 260 117 260 c 2
 356 260 l 2
 391 260 412 287 418 340 c 0
 420 358 428 369 442 369 c 2
 459 369 l 2
356 -109 m 2
 391 -109 412 -84 418 -33 c 2
 418 45 l 1
 408 76 389 92 362 92 c 2
 115 92 l 2
 109 92 102 92 98 92 c 0
 94 90 88 86 82 80 c 0
 76 72 70 59 68 45 c 2
 68 -41 l 2
 74 -86 90 -109 117 -109 c 2
 356 -109 l 2
881 10 m 0
 930 -78 963 -137 981 -166 c 0
 991 -180 995 -197 995 -215 c 2
 991 -240 l 1
 930 -357 874 -452 827 -528 c 0
 811 -553 794 -572 778 -584 c 1
 778 -2169 l 2
 778 -2183 772 -2189 758 -2189 c 2
 731 -2189 l 2
 717 -2189 711 -2183 711 -2169 c 2
 711 -573 l 1
 700 -557 l 2
 696 -551 674 -512 631 -440 c 0
 588 -368 563 -327 557 -319 c 0
 551 -313 549 -303 549 -291 c 0
 549 -283 551 -272 557 -258 c 2
 670 -57 l 2
 676 -51 678 -45 678 -41 c 0
 678 -35 676 -29 670 -23 c 0
 666 -17 647 17 616 72 c 0
 585 127 567 160 561 170 c 0
 553 184 549 197 549 203 c 0
 549 207 551 213 555 219 c 0
 559 225 561 232 561 236 c 2
 725 522 l 2
 739 553 756 574 774 582 c 1
 774 1190 l 2
 774 1204 781 1210 795 1210 c 2
 821 1210 l 2
 835 1210 842 1204 842 1190 c 2
 842 559 l 1
 854 543 l 2
 862 531 885 491 922 428 c 0
 959 365 981 325 987 311 c 0
 995 295 999 280 999 270 c 0
 999 264 997 256 993 248 c 2
 879 53 l 2
 875 45 872 39 872 33 c 0
 872 29 875 20 881 10 c 0
879 199 m 1
 752 412 l 1
 672 276 l 1
 797 59 l 1
 879 199 l 1
752 -70 m 1
 672 -205 l 1
 797 -422 l 1
 879 -283 l 1
 752 -70 l 1
EndSplineSet
EndChar

StartChar: e
Encoding: 101 101 20
Width: 1310
Flags: HW
LayerCount: 2
Back
Fore
SplineSet
1161 -588 m 0
 1163 -588 1177 -579 1202 -561 c 0
 1233 -541 1249 -533 1251 -535 c 0
 1251 -545 1237 -571 1206 -618 c 0
 1175 -665 1155 -688 1149 -688 c 0
 1147 -688 1079 -690 948 -692 c 0
 815 -694 747 -696 743 -696 c 0
 737 -696 745 -684 768 -657 c 0
 791 -630 823 -596 862 -553 c 0
 901 -510 942 -463 983 -414 c 0
 1022 -363 1056 -311 1085 -256 c 0
 1114 -201 1128 -152 1128 -113 c 0
 1128 -93 1124 -73 1118 -59 c 0
 1112 -45 1102 -33 1092 -25 c 0
 1082 -15 1067 -8 1053 -2 c 0
 1039 4 1022 6 1008 8 c 0
 994 10 977 10 963 10 c 0
 949 10 934 10 924 8 c 0
 912 6 901 6 893 4 c 2
 881 2 l 2
 875 2 895 39 942 113 c 0
 989 187 1036 260 1087 336 c 0
 1136 410 1161 449 1161 451 c 0
 1161 453 1100 455 975 457 c 0
 850 459 786 461 784 459 c 0
 782 459 753 432 698 381 c 0
 641 330 610 303 608 303 c 0
 606 303 592 305 569 309 c 0
 544 313 519 317 492 319 c 0
 465 321 432 324 397 326 c 0
 362 326 328 321 297 311 c 0
 266 301 236 284 209 266 c 0
 182 246 159 215 143 176 c 0
 127 135 119 86 119 31 c 0
 119 -28 133 -80 164 -123 c 0
 193 -166 229 -199 274 -219 c 0
 317 -239 365 -250 414 -250 c 0
 439 -250 461 -248 481 -246 c 0
 501 -242 518 -237 532 -233 c 0
 546 -227 559 -223 571 -217 c 0
 583 -211 594 -207 600 -203 c 0
 606 -197 610 -192 616 -190 c 0
 622 -186 625 -184 627 -184 c 2
 627 -184 627 -186 629 -190 c 0
 629 -217 600 -250 541 -285 c 0
 482 -320 407 -338 319 -338 c 0
 233 -338 159 -309 98 -250 c 0
 37 -191 6 -106 6 0 c 0
 6 102 47 192 131 272 c 0
 213 350 303 389 399 389 c 0
 419 389 440 389 463 387 c 0
 486 385 504 381 520 379 c 0
 536 375 551 371 565 369 c 0
 577 365 588 362 596 360 c 2
 608 356 l 2
 610 356 639 389 690 455 c 0
 741 518 766 551 768 551 c 0
 793 551 884 549 1044 547 c 0
 1204 543 1284 539 1284 537 c 0
 1284 531 1273 512 1253 479 c 0
 1230 446 1207 410 1178 367 c 2
 1090 238 l 2
 1059 195 1034 158 1016 129 c 0
 998 100 989 86 991 86 c 2
 1001 88 l 2
 1007 88 1016 88 1026 88 c 2
 1059 88 l 2
 1071 88 1084 86 1098 84 c 0
 1110 82 1123 78 1137 74 c 0
 1151 70 1164 63 1174 55 c 0
 1184 47 1194 39 1204 29 c 0
 1214 19 1221 4 1227 -12 c 0
 1233 -28 1235 -48 1235 -66 c 0
 1235 -101 1225 -141 1202 -188 c 0
 1179 -235 1155 -283 1126 -328 c 0
 1095 -373 1067 -416 1036 -457 c 0
 1005 -498 981 -530 963 -555 c 0
 943 -580 932 -592 934 -592 c 0
 938 -592 977 -592 1049 -590 c 0
 1121 -588 1159 -588 1161 -588 c 0
EndSplineSet
EndChar

StartChar: f
Encoding: 102 102 21
Width: 935
Flags: HW
LayerCount: 2
Back
Fore
SplineSet
836 -469 m 0
 838 -469 844 -465 854 -457 c 0
 864 -449 877 -440 887 -434 c 0
 897 -426 901 -424 901 -426 c 0
 901 -434 891 -457 868 -494 c 0
 845 -531 831 -549 827 -549 c 0
 825 -549 776 -551 682 -553 c 0
 586 -555 537 -555 535 -555 c 0
 531 -555 537 -544 553 -524 c 0
 569 -501 592 -475 621 -440 c 0
 650 -405 678 -369 707 -330 c 0
 736 -291 759 -248 782 -205 c 0
 802 -162 813 -123 813 -90 c 0
 813 -74 811 -59 805 -49 c 0
 799 -37 792 -26 784 -20 c 0
 776 -14 768 -8 758 -4 c 0
 748 2 735 4 725 6 c 0
 715 8 702 8 692 8 c 0
 682 8 672 8 664 6 c 0
 656 4 649 4 643 2 c 2
 633 2 l 2
 629 2 643 31 674 90 c 0
 705 147 735 207 768 266 c 0
 801 325 817 354 817 356 c 0
 817 362 727 365 547 365 c 0
 545 365 529 344 494 303 c 0
 459 260 438 240 436 240 c 0
 434 240 430 240 422 242 c 0
 412 244 403 246 393 248 c 0
 383 250 368 252 354 254 c 0
 340 256 323 256 309 256 c 1
 309 141 307 -11 305 -199 c 1
 356 -197 401 -183 444 -152 c 0
 448 -148 451 -148 451 -152 c 0
 451 -162 444 -174 434 -188 c 0
 424 -202 406 -215 383 -229 c 0
 360 -243 334 -254 305 -260 c 1
 301 -510 l 2
 299 -594 299 -657 299 -700 c 2
 299 -764 l 2
 299 -805 283 -842 252 -877 c 0
 219 -910 191 -926 164 -926 c 0
 154 -926 143 -919 133 -909 c 0
 123 -899 117 -889 115 -879 c 0
 111 -869 109 -860 109 -858 c 0
 109 -856 115 -843 129 -823 c 0
 143 -803 152 -793 154 -793 c 2
 154 -801 l 2
 154 -805 154 -811 156 -817 c 0
 156 -823 158 -832 160 -838 c 0
 162 -844 164 -850 170 -854 c 0
 176 -858 182 -860 188 -860 c 0
 204 -860 215 -854 221 -844 c 0
 227 -832 229 -811 229 -782 c 0
 229 -776 229 -752 231 -705 c 0
 231 -658 231 -592 233 -510 c 0
 233 -426 233 -346 233 -270 c 1
 233 -270 l 1
 229 -270 l 2
 166 -270 113 -248 70 -201 c 0
 25 -154 2 -86 2 -2 c 0
 2 72 27 138 74 195 c 0
 121 252 177 289 240 303 c 1
 242 592 239 737 233 737 c 0
 231 737 218 728 195 705 c 0
 166 678 152 668 152 672 c 0
 152 678 176 721 227 805 c 0
 276 887 303 928 307 928 c 0
 313 928 313 721 309 307 c 1
 329 305 351 303 371 299 c 0
 391 295 408 291 420 287 c 2
 436 281 l 2
 438 281 459 307 496 358 c 2
 551 436 l 2
 553 436 573 436 610 436 c 0
 647 434 690 434 737 432 c 0
 784 430 827 430 866 428 c 0
 905 426 924 426 924 424 c 0
 924 418 905 385 868 326 c 0
 831 267 797 207 762 152 c 0
 727 97 711 68 713 68 c 2
 721 68 l 2
 725 68 731 68 737 70 c 0
 743 70 752 70 762 70 c 0
 770 68 778 68 788 66 c 0
 798 64 807 59 817 57 c 0
 827 55 836 51 844 45 c 0
 852 39 860 31 866 23 c 0
 872 13 879 2 883 -12 c 0
 887 -24 889 -39 889 -53 c 0
 889 -96 871 -151 834 -221 c 0
 795 -291 760 -350 725 -399 c 2
 672 -471 l 2
 674 -471 703 -471 756 -471 c 0
 807 -469 834 -469 836 -469 c 0
236 -190 m 1
 238 103 238 250 238 252 c 1
 136 232 84 156 84 25 c 0
 84 -30 98 -78 127 -115 c 0
 156 -152 193 -176 236 -190 c 1
EndSplineSet
EndChar

StartChar: i
Encoding: 105 105 22
Width: 2199
Flags: HW
LayerCount: 2
Back
Fore
SplineSet
2185 506 m 0
 2187 500 2187 465 2187 397 c 0
 2187 329 2187 236 2187 117 c 0
 2185 -2 2185 -129 2183 -266 c 0
 2181 -401 2181 -541 2179 -682 c 0
 2177 -823 2177 -952 2175 -1067 c 0
 2173 -1180 2173 -1274 2173 -1348 c 2
 2171 -1458 l 2
 2171 -1462 2153 -1478 2116 -1505 c 0
 2079 -1532 2058 -1546 2054 -1546 c 0
 2050 -1546 2050 -1048 2054 -53 c 1
 2013 -119 1958 -176 1886 -225 c 0
 1814 -272 1739 -297 1663 -297 c 0
 1612 -297 1565 -288 1526 -270 c 0
 1487 -252 1458 -232 1442 -209 c 0
 1424 -186 1409 -165 1397 -147 c 0
 1383 -129 1374 -119 1370 -119 c 0
 1364 -119 1353 -130 1335 -150 c 0
 1317 -170 1295 -192 1272 -217 c 0
 1247 -242 1214 -265 1171 -285 c 0
 1128 -305 1083 -315 1036 -315 c 0
 1005 -315 973 -311 942 -303 c 0
 911 -295 883 -284 860 -272 c 0
 835 -260 813 -247 793 -233 c 0
 770 -219 753 -205 741 -193 c 0
 727 -179 717 -168 707 -160 c 0
 697 -152 692 -147 690 -147 c 0
 688 -147 682 -156 672 -170 c 0
 662 -184 647 -203 629 -223 c 0
 611 -243 590 -264 567 -287 c 0
 542 -307 512 -326 475 -340 c 0
 438 -354 399 -360 360 -360 c 0
 256 -360 176 -315 125 -225 c 1
 125 -254 125 -282 125 -311 c 0
 123 -338 123 -362 123 -385 c 0
 123 -405 123 -424 123 -440 c 0
 121 -456 121 -469 121 -479 c 2
 121 -494 l 2
 121 -496 110 -506 92 -520 c 0
 74 -534 53 -547 35 -561 c 0
 17 -573 6 -580 4 -580 c 0
 2 -580 2 -563 2 -528 c 0
 0 -493 0 -446 0 -391 c 0
 0 -336 0 -275 2 -207 c 0
 2 -139 2 -72 2 -4 c 0
 2 66 2 129 4 184 c 0
 4 239 4 285 6 322 c 0
 6 359 6 377 6 379 c 0
 6 381 27 403 70 442 c 0
 111 481 133 502 135 502 c 0
 137 502 137 452 137 356 c 0
 135 260 133 152 131 33 c 1
 190 142 285 197 414 197 c 0
 457 197 498 190 537 180 c 0
 574 170 604 155 627 141 c 0
 650 125 668 108 684 92 c 0
 700 76 713 61 723 51 c 0
 731 41 737 35 739 35 c 0
 741 35 748 43 758 57 c 0
 768 71 783 90 801 113 c 0
 819 136 841 155 870 178 c 0
 897 201 936 220 983 236 c 0
 1030 250 1082 258 1139 258 c 0
 1190 258 1235 252 1276 238 c 0
 1317 224 1348 206 1368 188 c 0
 1388 170 1407 155 1421 141 c 0
 1435 127 1446 119 1450 119 c 0
 1454 119 1466 127 1489 145 c 0
 1509 161 1534 181 1561 201 c 0
 1588 221 1624 240 1669 256 c 0
 1714 272 1759 281 1804 281 c 0
 1921 281 2005 254 2054 199 c 1
 2054 381 l 2
 2054 385 2075 407 2118 446 c 0
 2161 485 2183 506 2185 506 c 0
EndSplineSet
EndChar

StartChar: j
Encoding: 106 106 23
Width: 1415
Flags: HW
LayerCount: 2
Back
Fore
SplineSet
1405 496 m 0
 1407 496 1407 464 1407 401 c 0
 1407 338 1407 254 1407 152 c 0
 1405 50 1405 -63 1403 -186 c 0
 1401 -309 1401 -432 1399 -557 c 0
 1397 -682 1397 -795 1397 -897 c 0
 1395 -997 1395 -1081 1395 -1147 c 2
 1393 -1245 l 2
 1393 -1247 1376 -1261 1341 -1286 c 0
 1306 -1309 1286 -1321 1284 -1321 c 0
 1278 -1321 1276 -895 1282 -45 c 1
 1249 -104 1201 -158 1135 -203 c 0
 1067 -248 993 -270 913 -270 c 0
 872 -270 834 -264 799 -252 c 0
 764 -238 736 -221 713 -203 c 0
 690 -185 671 -163 655 -145 c 0
 639 -127 626 -110 618 -98 c 0
 608 -84 604 -78 602 -78 c 0
 600 -78 596 -84 586 -94 c 0
 576 -104 565 -117 553 -131 c 0
 539 -145 522 -160 504 -178 c 0
 484 -196 462 -213 442 -227 c 0
 419 -241 396 -254 369 -264 c 0
 342 -274 316 -279 289 -279 c 0
 201 -279 131 -254 80 -203 c 0
 29 -152 4 -98 4 -43 c 0
 4 -25 8 -7 14 16 c 0
 20 36 29 59 41 84 c 0
 53 109 71 131 94 154 c 0
 117 177 141 197 172 215 c 0
 201 233 238 250 281 260 c 0
 324 270 371 276 422 276 c 0
 463 276 499 270 530 260 c 0
 561 250 584 235 600 219 c 0
 614 203 627 186 637 172 c 0
 647 156 653 141 659 131 c 0
 663 119 668 113 670 113 c 0
 672 113 686 124 717 147 c 0
 748 170 784 194 831 217 c 0
 878 240 922 252 963 252 c 0
 1129 252 1235 215 1282 141 c 1
 1284 237 1284 319 1284 385 c 0
 1284 389 1304 409 1343 444 c 0
 1382 479 1403 496 1405 496 c 0
EndSplineSet
EndChar

StartChar: k
Encoding: 107 107 24
Width: 768
Flags: HW
LayerCount: 2
Back
Fore
SplineSet
762 500 m 0
 764 494 764 462 764 403 c 0
 762 344 762 268 760 172 c 0
 758 76 758 -18 756 -106 c 0
 754 -194 752 -272 750 -340 c 2
 748 -440 l 2
 748 -444 729 -458 692 -485 c 0
 655 -510 635 -522 631 -522 c 0
 629 -522 629 -406 629 -170 c 1
 557 -242 469 -279 360 -279 c 0
 241 -279 164 -238 125 -156 c 1
 121 -314 119 -407 119 -440 c 0
 119 -444 100 -458 63 -485 c 0
 26 -510 6 -522 4 -522 c 0
 2 -522 2 -506 0 -473 c 0
 0 -440 0 -397 0 -344 c 2
 0 -170 l 2
 0 -107 0 -40 0 23 c 0
 2 86 2 146 2 199 c 0
 4 250 4 295 4 330 c 2
 4 383 l 2
 4 385 25 405 68 444 c 0
 109 481 131 500 133 500 c 0
 135 500 135 461 135 381 c 0
 133 301 131 208 129 104 c 1
 162 147 207 186 262 219 c 0
 317 252 369 268 412 268 c 0
 496 268 568 244 631 195 c 1
 631 254 l 2
 631 274 631 293 633 307 c 0
 633 321 633 334 633 346 c 2
 633 373 l 1
 633 383 l 2
 633 385 653 405 696 444 c 0
 737 481 760 500 762 500 c 0
EndSplineSet
EndChar

StartChar: l
Encoding: 108 108 25
Width: 862
Flags: HW
LayerCount: 2
Back
Fore
SplineSet
418 289 m 0
 467 289 516 284 565 274 c 0
 612 264 660 249 707 231 c 0
 752 211 788 182 817 147 c 0
 846 110 860 70 860 23 c 0
 860 -36 835 -90 784 -139 c 0
 733 -188 672 -225 600 -252 c 0
 528 -277 457 -289 387 -289 c 0
 276 -289 185 -264 113 -213 c 0
 39 -162 2 -92 2 0 c 0
 2 51 25 100 68 145 c 0
 111 190 164 225 227 252 c 0
 290 277 355 289 418 289 c 0
EndSplineSet
EndChar

StartChar: m
Encoding: 109 109 26
Width: 708
Flags: HW
LayerCount: 2
Back
Fore
SplineSet
655 283 m 0
 673 283 688 213 696 74 c 0
 702 -65 704 -246 700 -469 c 0
 696 -690 692 -858 690 -975 c 0
 688 -1090 684 -1200 680 -1309 c 2
 680 -1321 l 1
 680 -1323 l 2
 680 -1331 657 -1356 614 -1399 c 0
 571 -1442 545 -1462 539 -1462 c 2
 545 -162 l 2
 545 -160 543 -162 541 -164 c 0
 539 -166 534 -168 528 -174 c 0
 522 -178 514 -184 506 -190 c 0
 496 -196 485 -203 473 -211 c 0
 461 -217 448 -225 434 -233 c 0
 420 -239 403 -248 385 -254 c 0
 367 -260 348 -266 330 -272 c 0
 310 -278 287 -283 264 -287 c 0
 239 -289 215 -291 190 -291 c 0
 118 -291 70 -277 43 -250 c 0
 16 -221 2 -180 2 -125 c 0
 2 -102 6 -80 12 -55 c 0
 18 -28 31 0 47 33 c 0
 61 64 86 94 119 123 c 0
 152 150 191 176 236 201 c 0
 281 226 340 246 412 260 c 0
 484 274 565 283 655 283 c 0
EndSplineSet
EndChar

StartChar: n
Encoding: 110 110 27
Width: 731
Flags: HW
LayerCount: 2
Back
Fore
SplineSet
717 80 m 0
 719 76 719 43 719 -16 c 0
 717 -75 717 -158 715 -262 c 0
 713 -366 713 -481 711 -602 c 0
 709 -723 709 -850 707 -979 c 0
 705 -1108 702 -1225 700 -1331 c 0
 698 -1437 698 -1528 696 -1604 c 0
 694 -1680 694 -1723 694 -1735 c 0
 694 -1753 674 -1786 635 -1833 c 0
 594 -1880 565 -1903 551 -1903 c 0
 528 -1903 486 -1843 420 -1724 c 0
 352 -1603 291 -1481 236 -1354 c 0
 181 -1227 152 -1151 152 -1126 c 0
 152 -1106 170 -1079 207 -1044 c 0
 242 -1009 287 -991 340 -991 c 0
 354 -991 354 -996 344 -1006 c 0
 309 -1033 291 -1053 289 -1069 c 0
 287 -1071 287 -1075 287 -1077 c 0
 287 -1100 323 -1178 399 -1313 c 0
 475 -1448 523 -1518 541 -1522 c 1
 543 -1278 553 -824 567 -154 c 1
 514 -197 454 -229 391 -256 c 0
 328 -281 264 -293 205 -293 c 0
 189 -293 170 -291 150 -287 c 0
 130 -281 107 -272 84 -262 c 0
 59 -252 39 -234 25 -211 c 0
 9 -186 0 -158 0 -123 c 0
 0 -72 20 -22 59 31 c 0
 98 82 146 125 201 162 c 0
 256 197 312 227 367 250 c 0
 422 273 465 285 498 285 c 0
 525 285 555 278 588 266 c 0
 619 252 649 230 676 197 c 0
 703 164 717 125 717 80 c 0
EndSplineSet
EndChar

StartChar: o
Encoding: 111 111 28
Width: 743
Flags: HW
LayerCount: 2
Back
Fore
SplineSet
2 -111 m 0
 2 -9 61 86 178 170 c 0
 284 248 393 287 506 289 c 0
 623 291 692 248 715 156 c 0
 719 138 721 117 721 94 c 0
 721 86 725 -195 731 -752 c 0
 737 -1307 739 -1595 739 -1618 c 0
 739 -1634 715 -1654 668 -1679 c 0
 619 -1704 585 -1716 569 -1716 c 0
 555 -1716 516 -1673 453 -1585 c 0
 390 -1497 329 -1403 274 -1305 c 0
 217 -1205 188 -1141 188 -1114 c 0
 188 -1091 202 -1065 233 -1034 c 0
 264 -1003 283 -987 291 -987 c 0
 295 -989 297 -993 295 -1001 c 0
 293 -1009 291 -1020 289 -1034 c 0
 285 -1048 283 -1055 283 -1057 c 0
 283 -1063 338 -1139 449 -1280 c 0
 560 -1421 619 -1493 627 -1495 c 1
 627 -1278 l 2
 627 -1276 573 -1204 469 -1061 c 0
 365 -918 311 -835 311 -817 c 0
 311 -799 327 -770 358 -727 c 0
 389 -684 408 -662 416 -662 c 0
 418 -662 420 -664 422 -670 c 0
 422 -676 422 -682 422 -692 c 0
 422 -700 422 -709 422 -717 c 0
 420 -725 420 -733 420 -741 c 2
 420 -756 l 2
 420 -762 436 -784 471 -823 c 0
 506 -862 540 -899 575 -934 c 0
 610 -969 627 -987 627 -985 c 2
 627 -954 l 1
 627 -879 l 1
 627 -774 l 2
 627 -733 627 -690 629 -647 c 0
 629 -604 629 -559 629 -516 c 0
 629 -473 629 -430 629 -391 c 0
 627 -352 627 -318 627 -287 c 0
 627 -256 627 -233 627 -215 c 0
 625 -197 625 -186 623 -186 c 0
 621 -186 602 -195 569 -213 c 0
 534 -229 491 -246 440 -264 c 0
 387 -280 336 -289 285 -289 c 0
 205 -289 137 -275 84 -244 c 0
 29 -213 2 -168 2 -111 c 0
EndSplineSet
EndChar

StartChar: p
Encoding: 112 112 29
Width: 407
Flags: HW
LayerCount: 2
Back
Fore
SplineSet
268 -197 m 1
 178 -117 l 1
 66 -154 l 1
 90 -37 l 1
 0 43 l 1
 115 80 l 1
 139 197 l 1
 229 117 l 1
 342 154 l 1
 317 37 l 1
 406 -43 l 1
 293 -80 l 1
 268 -197 l 1
EndSplineSet
EndChar

StartChar: q
Encoding: 113 113 30
Width: 2226
Flags: HW
LayerCount: 2
Back
Fore
SplineSet
2210 502 m 0
 2212 502 2212 467 2212 399 c 0
 2212 331 2212 242 2212 133 c 0
 2210 24 2210 -96 2208 -229 c 0
 2206 -360 2206 -492 2204 -625 c 0
 2202 -758 2200 -878 2198 -987 c 0
 2196 -1096 2195 -1183 2195 -1253 c 2
 2193 -1358 l 2
 2193 -1362 2173 -1376 2134 -1403 c 0
 2093 -1430 2070 -1442 2068 -1442 c 0
 2062 -1442 2060 -1000 2066 -115 c 1
 2021 -156 1970 -190 1913 -217 c 0
 1856 -244 1800 -258 1745 -258 c 0
 1686 -258 1636 -254 1593 -246 c 0
 1550 -236 1519 -225 1501 -213 c 0
 1481 -201 1466 -188 1456 -176 c 0
 1446 -164 1438 -153 1434 -145 c 0
 1430 -135 1425 -131 1421 -131 c 0
 1417 -131 1411 -135 1405 -145 c 0
 1397 -153 1386 -164 1372 -178 c 0
 1358 -190 1340 -203 1317 -217 c 0
 1294 -229 1262 -240 1219 -250 c 0
 1176 -258 1128 -262 1075 -262 c 0
 1030 -262 989 -258 952 -250 c 0
 915 -242 886 -231 866 -221 c 0
 846 -209 829 -196 815 -186 c 0
 801 -174 788 -164 782 -156 c 0
 776 -148 772 -143 770 -143 c 0
 768 -143 755 -152 737 -168 c 0
 717 -184 695 -203 668 -221 c 0
 641 -239 606 -258 561 -274 c 0
 514 -290 467 -299 416 -299 c 0
 289 -299 198 -270 143 -215 c 1
 141 -233 141 -254 141 -272 c 0
 141 -290 141 -308 139 -322 c 0
 139 -336 139 -351 139 -365 c 2
 139 -401 l 2
 139 -411 139 -420 137 -428 c 0
 137 -434 137 -440 137 -444 c 2
 137 -451 l 2
 137 -453 126 -461 106 -475 c 0
 86 -489 65 -502 45 -514 c 0
 25 -526 14 -532 12 -532 c 0
 10 -532 10 -522 8 -502 c 0
 8 -482 8 -455 6 -420 c 0
 6 -385 6 -344 6 -301 c 2
 6 -158 l 2
 6 -107 6 -57 6 -8 c 0
 8 41 8 88 8 135 c 0
 10 180 10 221 10 256 c 0
 10 291 10 317 10 340 c 0
 12 363 12 373 12 375 c 0
 12 379 35 399 80 436 c 0
 125 473 150 492 154 492 c 2
 154 356 l 2
 154 307 152 205 150 51 c 1
 193 110 252 164 328 207 c 0
 404 250 473 270 539 270 c 0
 590 270 637 264 676 254 c 0
 715 244 744 231 760 217 c 0
 776 203 791 188 801 178 c 0
 811 168 819 162 823 162 c 0
 825 162 834 166 846 174 c 0
 856 182 873 193 893 205 c 0
 911 217 936 230 963 242 c 0
 990 254 1022 264 1065 272 c 0
 1108 280 1153 285 1200 285 c 0
 1263 285 1319 276 1366 262 c 0
 1413 246 1448 227 1468 209 c 0
 1486 191 1504 172 1518 158 c 0
 1532 142 1540 133 1544 133 c 0
 1550 133 1563 142 1577 156 c 0
 1591 170 1608 187 1626 205 c 0
 1644 223 1673 240 1716 254 c 0
 1759 268 1809 274 1866 274 c 0
 1950 274 2017 263 2068 240 c 1
 2068 289 l 1
 2068 328 l 1
 2068 358 l 2
 2068 366 2069 373 2071 379 c 2
 2071 385 l 2
 2071 387 2082 398 2105 418 c 0
 2128 436 2150 457 2173 475 c 0
 2196 493 2208 502 2210 502 c 0
451 -158 m 0
 543 -158 615 -148 664 -125 c 0
 711 -102 735 -72 735 -37 c 0
 735 -19 725 2 702 29 c 0
 679 54 649 75 606 98 c 0
 563 118 516 129 469 129 c 0
 383 129 313 111 262 72 c 0
 211 33 184 -4 184 -35 c 0
 184 -55 196 -76 219 -94 c 0
 242 -112 274 -129 317 -141 c 0
 358 -151 404 -158 451 -158 c 0
1171 -100 m 0
 1255 -100 1315 -94 1352 -82 c 0
 1389 -70 1407 -47 1407 -12 c 0
 1407 6 1393 26 1364 53 c 0
 1333 78 1296 101 1251 119 c 0
 1206 137 1165 147 1128 147 c 0
 1052 147 989 139 938 121 c 0
 887 103 862 82 862 59 c 0
 862 22 899 -14 971 -49 c 0
 1043 -84 1108 -100 1171 -100 c 0
1784 -125 m 0
 1856 -125 1919 -113 1972 -88 c 0
 2023 -63 2050 -33 2050 6 c 0
 2050 37 2023 67 1972 98 c 0
 1919 127 1860 141 1794 141 c 0
 1745 141 1702 135 1665 121 c 0
 1628 107 1601 88 1587 70 c 0
 1571 52 1563 30 1563 10 c 0
 1563 -21 1585 -51 1632 -82 c 0
 1679 -111 1729 -125 1784 -125 c 0
EndSplineSet
EndChar

StartChar: r
Encoding: 114 114 31
Width: 1402
Flags: HW
LayerCount: 2
Back
Fore
SplineSet
1384 432 m 0
 1386 432 1386 399 1386 336 c 0
 1386 273 1386 188 1386 84 c 0
 1384 -20 1384 -133 1384 -258 c 0
 1382 -383 1382 -508 1380 -633 c 0
 1378 -758 1378 -873 1376 -977 c 0
 1374 -1079 1374 -1163 1374 -1231 c 2
 1372 -1329 l 2
 1372 -1331 1354 -1345 1319 -1370 c 0
 1284 -1395 1264 -1407 1262 -1407 c 0
 1260 -1407 1260 -1344 1260 -1217 c 0
 1258 -1090 1258 -901 1260 -649 c 0
 1260 -397 1260 -221 1260 -117 c 1
 1221 -168 1166 -209 1094 -242 c 0
 1022 -273 950 -289 874 -289 c 0
 835 -289 803 -285 774 -279 c 0
 743 -271 721 -260 705 -248 c 0
 687 -236 672 -221 662 -207 c 0
 650 -193 641 -178 637 -164 c 0
 631 -150 627 -135 625 -123 c 0
 623 -111 621 -100 621 -94 c 0
 619 -86 618 -82 616 -82 c 0
 614 -82 610 -88 600 -102 c 0
 590 -114 575 -132 557 -150 c 0
 539 -168 517 -187 494 -205 c 0
 469 -223 441 -238 406 -252 c 0
 371 -264 336 -270 299 -270 c 0
 221 -270 162 -248 123 -201 c 1
 121 -291 119 -370 119 -438 c 0
 119 -440 101 -454 66 -479 c 0
 31 -502 10 -514 8 -514 c 0
 6 -514 6 -498 6 -467 c 2
 6 -346 l 1
 6 -180 l 2
 6 -119 6 -57 6 4 c 0
 8 63 8 119 8 170 c 0
 8 221 8 262 8 295 c 2
 10 344 l 2
 10 346 31 366 70 401 c 0
 109 436 129 455 131 455 c 0
 133 455 133 441 133 410 c 2
 133 281 l 2
 133 226 131 170 129 111 c 1
 209 211 313 262 444 262 c 0
 489 262 530 258 565 248 c 0
 600 238 629 225 647 211 c 0
 665 197 682 182 694 168 c 0
 704 154 715 141 721 131 c 0
 727 121 729 117 731 117 c 0
 733 117 746 123 764 137 c 0
 782 151 804 166 831 182 c 0
 856 198 887 215 924 229 c 0
 959 243 993 250 1024 250 c 0
 1137 250 1215 227 1262 180 c 1
 1264 237 1264 285 1264 322 c 0
 1264 324 1284 344 1323 379 c 0
 1362 414 1382 432 1384 432 c 0
348 -147 m 0
 407 -147 465 -131 520 -100 c 0
 575 -67 604 -33 604 4 c 0
 604 43 579 75 532 98 c 0
 485 123 426 135 354 135 c 0
 303 135 260 123 225 96 c 0
 188 71 170 45 170 16 c 0
 170 -33 188 -71 229 -102 c 0
 268 -133 307 -147 348 -147 c 0
950 -162 m 0
 1013 -162 1076 -150 1135 -125 c 0
 1194 -98 1223 -66 1223 -27 c 0
 1223 8 1200 43 1155 78 c 0
 1110 113 1054 131 991 131 c 0
 923 131 866 117 819 88 c 0
 772 61 748 27 748 -12 c 0
 748 -49 764 -84 795 -115 c 0
 826 -146 878 -162 950 -162 c 0
EndSplineSet
EndChar

StartChar: s
Encoding: 115 115 32
Width: 813
Flags: HW
LayerCount: 2
Back
Fore
SplineSet
807 506 m 0
 809 500 809 467 809 406 c 0
 809 343 809 260 807 158 c 0
 805 56 803 -43 801 -137 c 0
 799 -229 797 -313 795 -385 c 2
 793 -492 l 2
 793 -494 774 -510 735 -537 c 0
 696 -564 674 -578 672 -578 c 0
 668 -578 666 -442 666 -174 c 1
 594 -254 498 -293 377 -293 c 0
 268 -293 186 -266 131 -211 c 1
 131 -258 131 -303 131 -350 c 0
 129 -395 129 -430 129 -455 c 2
 127 -492 l 2
 127 -496 109 -512 70 -539 c 0
 31 -566 8 -578 4 -578 c 0
 2 -578 2 -561 2 -526 c 0
 0 -491 0 -444 0 -389 c 0
 0 -334 0 -273 2 -205 c 0
 2 -137 2 -68 2 0 c 0
 2 68 2 131 4 186 c 0
 4 241 4 289 6 326 c 0
 6 363 6 381 6 383 c 0
 6 387 29 410 72 449 c 0
 115 488 139 506 141 506 c 0
 143 506 143 494 143 469 c 0
 143 442 143 399 143 340 c 0
 141 279 141 225 141 178 c 1
 178 211 223 238 274 256 c 0
 325 274 373 285 412 285 c 0
 523 285 609 260 670 213 c 1
 672 281 672 336 672 383 c 0
 672 387 694 410 737 449 c 0
 780 488 805 506 807 506 c 0
408 -164 m 0
 537 -164 625 -148 668 -117 c 1
 668 43 l 1
 637 70 596 95 541 113 c 0
 486 131 432 139 381 139 c 0
 266 139 186 125 139 94 c 1
 135 -47 l 1
 164 -80 203 -108 250 -131 c 0
 297 -154 349 -164 408 -164 c 0
EndSplineSet
EndChar

StartChar: t
Encoding: 116 116 33
Width: 854
Flags: HW
LayerCount: 2
Back
Fore
SplineSet
412 285 m 0
 459 285 508 280 557 270 c 0
 604 260 651 245 698 227 c 0
 743 207 780 178 809 143 c 0
 838 108 852 65 852 18 c 0
 852 -41 827 -94 776 -143 c 0
 725 -190 664 -227 592 -252 c 0
 520 -277 451 -289 381 -289 c 0
 270 -289 181 -264 109 -215 c 0
 37 -166 0 -94 0 -2 c 0
 0 74 45 140 133 199 c 0
 221 256 314 285 412 285 c 0
453 -221 m 0
 519 -221 576 -205 623 -170 c 0
 670 -135 692 -84 692 -12 c 0
 692 39 653 90 575 141 c 0
 495 192 430 217 377 217 c 0
 359 217 339 215 319 211 c 0
 299 205 277 196 252 182 c 0
 227 168 207 148 193 117 c 0
 177 86 168 51 168 8 c 0
 168 -47 202 -98 272 -147 c 0
 342 -196 402 -221 453 -221 c 0
EndSplineSet
EndChar

StartChar: u
Encoding: 117 117 34
Width: 602
Flags: HW
LayerCount: 2
Back
Fore
SplineSet
582 37 m 0
 584 29 584 -14 584 -90 c 0
 582 -166 582 -268 582 -393 c 0
 580 -518 580 -639 580 -756 c 0
 578 -873 578 -973 578 -1061 c 0
 576 -1149 575 -1192 575 -1194 c 0
 575 -1208 567 -1237 553 -1282 c 0
 537 -1325 522 -1348 512 -1348 c 0
 504 -1348 491 -1151 475 -758 c 2
 451 -168 l 2
 449 -168 435 -179 408 -197 c 0
 379 -215 340 -236 291 -254 c 0
 240 -272 188 -283 133 -283 c 0
 98 -283 66 -267 39 -236 c 0
 10 -203 -4 -155 -4 -96 c 0
 -4 -45 12 6 43 55 c 0
 74 104 113 145 158 178 c 0
 203 209 250 236 297 254 c 0
 344 272 383 283 416 283 c 0
 463 283 497 274 522 258 c 0
 545 242 561 217 569 184 c 0
 577 149 582 100 582 37 c 0
281 -195 m 0
 322 -195 369 -166 420 -111 c 0
 471 -56 498 -2 498 49 c 0
 498 92 486 133 459 170 c 0
 432 205 402 223 369 223 c 0
 320 223 266 196 211 141 c 0
 154 86 125 28 125 -33 c 0
 125 -82 139 -121 166 -150 c 0
 193 -181 232 -195 281 -195 c 0
EndSplineSet
EndChar

StartChar: v
Encoding: 118 118 35
Width: 712
Flags: HW
LayerCount: 2
Back
Fore
SplineSet
702 82 m 1
 704 82 702 -59 700 -342 c 0
 696 -623 692 -916 688 -1221 c 0
 682 -1524 680 -1685 680 -1708 c 0
 680 -1726 660 -1759 621 -1806 c 0
 582 -1851 553 -1874 539 -1874 c 0
 516 -1874 473 -1815 410 -1698 c 0
 347 -1579 286 -1458 231 -1333 c 0
 176 -1208 150 -1133 150 -1108 c 0
 150 -1102 154 -1091 162 -1077 c 0
 170 -1063 183 -1046 197 -1032 c 0
 211 -1016 229 -1001 254 -991 c 0
 279 -981 305 -975 334 -975 c 0
 346 -975 346 -979 336 -989 c 0
 301 -1020 283 -1043 283 -1061 c 0
 283 -1084 319 -1161 393 -1294 c 0
 465 -1427 512 -1495 530 -1497 c 1
 532 -1261 541 -812 555 -150 c 1
 504 -191 446 -223 383 -250 c 0
 320 -275 260 -287 201 -287 c 0
 185 -287 165 -285 147 -281 c 0
 127 -275 105 -266 82 -256 c 0
 59 -246 39 -228 25 -205 c 0
 9 -180 0 -152 0 -117 c 0
 0 -68 18 -18 59 33 c 0
 98 84 144 127 197 164 c 0
 250 199 303 229 358 252 c 0
 411 275 454 285 487 285 c 0
 534 285 582 266 631 231 c 0
 678 196 702 145 702 82 c 1
319 -180 m 0
 356 -180 395 -172 434 -158 c 0
 473 -142 510 -115 543 -80 c 0
 574 -45 590 -4 590 41 c 0
 590 84 576 123 547 160 c 0
 518 197 477 215 426 215 c 0
 379 215 316 188 240 133 c 0
 162 78 123 24 123 -27 c 0
 123 -70 139 -104 170 -135 c 0
 201 -166 251 -180 319 -180 c 0
EndSplineSet
EndChar

StartChar: w
Encoding: 119 119 36
Width: 716
Flags: HW
LayerCount: 2
Back
Fore
SplineSet
0 -113 m 0
 0 -9 57 86 172 170 c 0
 276 246 383 285 492 287 c 0
 605 287 670 242 690 150 c 0
 692 132 694 112 694 92 c 0
 694 84 699 -197 705 -750 c 0
 711 -1303 713 -1589 713 -1612 c 0
 713 -1628 690 -1648 643 -1673 c 0
 596 -1698 565 -1710 551 -1710 c 0
 537 -1710 497 -1667 438 -1579 c 0
 377 -1491 319 -1398 264 -1300 c 0
 209 -1200 182 -1137 182 -1110 c 0
 182 -1090 196 -1063 225 -1032 c 0
 254 -999 273 -983 281 -983 c 0
 285 -985 287 -991 285 -999 c 0
 283 -1007 281 -1018 279 -1032 c 0
 275 -1044 272 -1053 272 -1055 c 0
 272 -1061 326 -1133 432 -1274 c 0
 538 -1415 596 -1487 604 -1489 c 1
 604 -1274 l 2
 604 -1272 553 -1200 451 -1059 c 0
 349 -916 297 -833 297 -815 c 0
 297 -797 313 -768 344 -725 c 0
 375 -682 393 -659 401 -659 c 0
 403 -659 406 -662 408 -668 c 0
 408 -674 408 -680 408 -690 c 0
 408 -698 408 -707 408 -715 c 0
 406 -723 406 -731 406 -739 c 2
 406 -754 l 2
 406 -760 422 -782 455 -821 c 0
 488 -860 520 -897 555 -932 c 0
 588 -967 604 -983 604 -981 c 2
 606 -952 l 2
 606 -932 606 -908 606 -877 c 2
 606 -772 l 1
 606 -647 l 1
 606 -516 l 1
 606 -393 l 2
 606 -354 606 -320 606 -289 c 0
 604 -258 604 -233 604 -215 c 0
 602 -197 602 -188 600 -188 c 0
 598 -188 580 -197 549 -213 c 0
 516 -229 475 -246 424 -264 c 0
 373 -280 323 -289 274 -289 c 0
 196 -289 131 -275 80 -244 c 0
 27 -213 0 -168 0 -113 c 0
330 -180 m 0
 357 -180 385 -176 416 -170 c 0
 445 -162 473 -149 502 -133 c 0
 531 -117 555 -95 573 -66 c 0
 591 -35 600 0 600 39 c 0
 600 94 586 137 555 166 c 0
 524 195 485 209 442 209 c 0
 417 209 389 205 356 195 c 0
 323 185 291 170 256 152 c 0
 221 134 191 109 168 74 c 0
 143 39 131 2 131 -39 c 0
 131 -80 149 -114 186 -141 c 0
 223 -168 271 -180 330 -180 c 0
EndSplineSet
EndChar

StartChar: x
Encoding: 120 120 37
Width: 407
Flags: HW
LayerCount: 2
Back
Fore
SplineSet
268 -197 m 1
 178 -117 l 1
 66 -154 l 1
 90 -37 l 1
 0 43 l 1
 115 80 l 1
 139 197 l 1
 229 117 l 1
 342 154 l 1
 317 37 l 1
 406 -43 l 1
 293 -80 l 1
 268 -197 l 1
EndSplineSet
EndChar

StartChar: y
Encoding: 121 121 38
Width: 1245
Flags: HW
LayerCount: 2
Back
Fore
SplineSet
119 -268 m 2
 119 -284 117 -305 117 -332 c 2
 117 -381 l 2
 117 -391 117 -402 117 -416 c 2
 117 -428 l 1
 117 -428 108 -437 90 -449 c 0
 78 -459 61 -471 41 -483 c 0
 27 -495 18 -502 14 -502 c 2
 14 -502 14 -486 14 -455 c 0
 12 -437 12 -397 12 -340 c 0
 12 -272 12 -219 14 -180 c 2
 14 -4 l 2
 14 96 14 190 16 274 c 2
 16 324 l 2
 16 326 35 344 70 379 c 0
 107 412 125 430 129 430 c 2
 129 430 129 387 129 305 c 2
 127 160 l 1
 137 166 148 174 160 182 c 0
 211 217 283 236 375 236 c 0
 445 236 495 219 528 186 c 0
 548 163 568 138 580 111 c 0
 584 101 586 94 588 94 c 2
 588 94 590 96 592 98 c 0
 596 100 600 103 608 109 c 0
 614 115 621 119 629 125 c 0
 658 148 692 168 731 186 c 0
 772 204 807 215 840 215 c 0
 983 215 1075 182 1114 119 c 1
 1116 174 1116 244 1116 330 c 0
 1116 332 1132 348 1167 379 c 0
 1200 410 1219 424 1221 424 c 0
 1223 424 1223 397 1223 342 c 0
 1223 289 1221 119 1219 -162 c 0
 1219 -182 1219 -272 1217 -430 c 0
 1215 -590 1214 -702 1214 -772 c 0
 1212 -831 1212 -903 1212 -989 c 2
 1210 -1073 l 2
 1210 -1077 1196 -1088 1165 -1108 c 0
 1136 -1128 1120 -1139 1116 -1139 c 0
 1110 -1139 1110 -772 1114 -41 c 1
 1100 -68 1084 -92 1061 -115 c 0
 1038 -140 1014 -160 987 -176 c 0
 960 -194 930 -209 897 -219 c 0
 864 -229 832 -236 799 -236 c 0
 725 -236 668 -215 625 -176 c 0
 588 -143 561 -113 545 -86 c 0
 535 -74 530 -70 530 -70 c 2
 528 -70 524 -74 516 -82 c 0
 512 -86 501 -97 487 -113 c 0
 460 -144 428 -170 393 -199 c 0
 352 -228 307 -242 260 -242 c 0
 207 -242 160 -230 119 -205 c 1
 119 -268 l 2
EndSplineSet
EndChar

StartChar: I
Encoding: 128 73 41
Width: 1310
Flags: HW
LayerCount: 2
Back
Fore
SplineSet
688 305 m 2
 686 305 672 307 649 311 c 0
 624 315 598 320 571 322 c 0
 544 324 512 326 477 328 c 0
 442 328 408 323 377 313 c 0
 346 303 316 286 289 268 c 0
 262 248 239 217 223 178 c 0
 207 137 199 88 199 33 c 0
 199 -26 213 -78 244 -121 c 0
 273 -164 309 -197 354 -217 c 0
 397 -237 445 -248 494 -248 c 0
 519 -248 541 -246 561 -244 c 0
 581 -240 598 -235 612 -231 c 0
 626 -225 639 -221 651 -215 c 0
 663 -209 674 -205 680 -201 c 0
 686 -195 690 -190 696 -188 c 0
 702 -184 705 -182 707 -182 c 2
 707 -182 707 -184 709 -188 c 0
 709 -215 680 -248 621 -283 c 0
 562 -318 487 -336 399 -336 c 0
 313 -336 239 -307 178 -248 c 0
 117 -189 86 -104 86 2 c 0
 86 104 127 194 211 274 c 0
 293 352 383 391 479 391 c 0
 499 391 520 391 543 389 c 0
 566 387 584 383 600 381 c 0
 616 377 631 373 645 371 c 0
 657 367 668 364 676 362 c 2
 688 358 l 1
 688 305 l 2
EndSplineSet
EndChar

StartChar: K
Encoding: 129 75 42
Width: 935
Flags: HWO
LayerCount: 2
Back
Fore
SplineSet
285 -272 m 1
 287 21 287 168 287 170 c 1
 185 150 133 74 133 -57 c 0
 133 -112 147 -160 176 -197 c 0
 205 -234 242 -258 285 -272 c 1
485 158 m 2
 483 158 479 158 471 160 c 0
 461 162 452 164 442 166 c 0
 432 168 417 170 403 172 c 0
 389 174 372 174 358 174 c 1
 358 59 356 -93 354 -281 c 1
 405 -279 451 -264 494 -233 c 0
 498 -229 500 -229 500 -233 c 0
 500 -243 493 -256 483 -270 c 0
 473 -284 455 -297 432 -311 c 0
 409 -325 383 -336 354 -342 c 1
 350 -592 l 2
 348 -676 348 -739 348 -782 c 2
 348 -846 l 2
 348 -887 332 -923 301 -958 c 0
 268 -991 240 -1008 213 -1008 c 0
 203 -1008 192 -1001 182 -991 c 0
 172 -981 166 -971 164 -961 c 0
 160 -951 158 -942 158 -940 c 0
 158 -938 164 -925 178 -905 c 0
 192 -885 201 -874 203 -874 c 2
 203 -883 l 2
 203 -887 203 -893 205 -899 c 0
 205 -905 207 -914 209 -920 c 0
 211 -926 213 -932 219 -936 c 0
 225 -940 232 -942 238 -942 c 0
 254 -942 264 -936 270 -926 c 0
 276 -914 279 -893 279 -864 c 0
 279 -858 279 -833 281 -786 c 0
 281 -739 281 -674 283 -592 c 0
 283 -508 283 -428 283 -352 c 1
 279 -352 l 2
 216 -352 162 -330 119 -283 c 0
 74 -236 51 -168 51 -84 c 0
 51 -10 76 56 123 113 c 0
 170 170 226 207 289 221 c 1
 291 510 289 655 283 655 c 0
 281 655 267 646 244 623 c 0
 215 596 201 586 201 590 c 0
 201 596 225 639 276 723 c 0
 325 805 352 846 356 846 c 0
 362 846 362 639 358 225 c 1
 378 223 400 221 420 217 c 0
 440 213 457 209 469 205 c 2
 485 199 l 1
 485 158 l 2
EndSplineSet
EndChar

